<svg width="24" height="24" viewBox="0 0 24 24" fill="none" xmlns="http://www.w3.org/2000/svg">
<circle cx="12" cy="12" r="12" fill="#FF6B6B"/>
<path d="M7.56313 13.96C7.56313 11.92 8.73913 11.56 10.3711 11.104C11.6431 10.744 12.0991 10.708 12.0991 10.18C12.0991 9.772 11.7991 9.52 11.1031 9.52C10.4311 9.52 9.83113 9.604 9.83113 10.276H7.67113C7.67113 8.164 8.94313 7.42 11.0071 7.42C13.3711 7.42 14.4391 8.212 14.4391 10.228C14.4391 12.028 13.3111 12.484 11.6551 12.94C10.6951 13.204 9.66313 13.408 9.66313 13.96H14.4031V16H7.56313V13.96Z" fill="white"/>
</svg>
